<svg id="wave" style="transform:rotate(0deg); transition: 0.3s" viewBox="0 0 1440 290" version="1.1" xmlns="http://www.w3.org/2000/svg"><defs><linearGradient id="sw-gradient-0" x1="0" x2="0" y1="1" y2="0"><stop stop-color="rgba(255, 182, 193, 1)" offset="0%"></stop><stop stop-color="rgba(255, 149.242, 165.178, 1)" offset="100%"></stop></linearGradient></defs><path style="transform:translate(0, 0px); opacity:1" fill="url(#sw-gradient-0)" d="M0,87L18.5,116C36.9,145,74,203,111,232C147.7,261,185,261,222,227.2C258.5,193,295,126,332,101.5C369.2,77,406,97,443,106.3C480,116,517,116,554,96.7C590.8,77,628,39,665,24.2C701.5,10,738,19,775,58C812.3,97,849,164,886,164.3C923.1,164,960,97,997,91.8C1033.8,87,1071,145,1108,140.2C1144.6,135,1182,68,1218,72.5C1255.4,77,1292,155,1329,193.3C1366.2,232,1403,232,1440,227.2C1476.9,222,1514,213,1551,203C1587.7,193,1625,184,1662,188.5C1698.5,193,1735,213,1772,222.3C1809.2,232,1846,232,1883,193.3C1920,155,1957,77,1994,38.7C2030.8,0,2068,0,2105,33.8C2141.5,68,2178,135,2215,174C2252.3,213,2289,222,2326,217.5C2363.1,213,2400,193,2437,169.2C2473.8,145,2511,116,2548,130.5C2584.6,145,2622,203,2640,232L2658.5,261L2658.5,290L2640,290C2621.5,290,2585,290,2548,290C2510.8,290,2474,290,2437,290C2400,290,2363,290,2326,290C2289.2,290,2252,290,2215,290C2178.5,290,2142,290,2105,290C2067.7,290,2031,290,1994,290C1956.9,290,1920,290,1883,290C1846.2,290,1809,290,1772,290C1735.4,290,1698,290,1662,290C1624.6,290,1588,290,1551,290C1513.8,290,1477,290,1440,290C1403.1,290,1366,290,1329,290C1292.3,290,1255,290,1218,290C1181.5,290,1145,290,1108,290C1070.8,290,1034,290,997,290C960,290,923,290,886,290C849.2,290,812,290,775,290C738.5,290,702,290,665,290C627.7,290,591,290,554,290C516.9,290,480,290,443,290C406.2,290,369,290,332,290C295.4,290,258,290,222,290C184.6,290,148,290,111,290C73.8,290,37,290,18,290L0,290Z"></path></svg>