<svg id="wave" style="transform:rotate(0deg); transition: 0.3s" viewBox="0 0 1440 270" version="1.1" xmlns="http://www.w3.org/2000/svg"><defs><linearGradient id="sw-gradient-0" x1="0" x2="0" y1="1" y2="0"><stop stop-color="rgba(179.417, 124.764, 255, 1)" offset="0%"></stop><stop stop-color="rgba(174.78, 122.373, 247.259, 1)" offset="100%"></stop></linearGradient></defs><path style="transform:translate(0, 0px); opacity:1" fill="url(#sw-gradient-0)" d="M0,81L21.8,67.5C43.6,54,87,27,131,13.5C174.5,0,218,0,262,13.5C305.5,27,349,54,393,63C436.4,72,480,63,524,49.5C567.3,36,611,18,655,9C698.2,0,742,0,785,9C829.1,18,873,36,916,76.5C960,117,1004,180,1047,184.5C1090.9,189,1135,135,1178,121.5C1221.8,108,1265,135,1309,135C1352.7,135,1396,108,1440,117C1483.6,126,1527,171,1571,198C1614.5,225,1658,234,1702,202.5C1745.5,171,1789,99,1833,81C1876.4,63,1920,99,1964,126C2007.3,153,2051,171,2095,180C2138.2,189,2182,189,2225,166.5C2269.1,144,2313,99,2356,85.5C2400,72,2444,90,2487,103.5C2530.9,117,2575,126,2618,117C2661.8,108,2705,81,2749,72C2792.7,63,2836,72,2880,90C2923.6,108,2967,135,3011,157.5C3054.5,180,3098,198,3120,207L3141.8,216L3141.8,270L3120,270C3098.2,270,3055,270,3011,270C2967.3,270,2924,270,2880,270C2836.4,270,2793,270,2749,270C2705.5,270,2662,270,2618,270C2574.5,270,2531,270,2487,270C2443.6,270,2400,270,2356,270C2312.7,270,2269,270,2225,270C2181.8,270,2138,270,2095,270C2050.9,270,2007,270,1964,270C1920,270,1876,270,1833,270C1789.1,270,1745,270,1702,270C1658.2,270,1615,270,1571,270C1527.3,270,1484,270,1440,270C1396.4,270,1353,270,1309,270C1265.5,270,1222,270,1178,270C1134.5,270,1091,270,1047,270C1003.6,270,960,270,916,270C872.7,270,829,270,785,270C741.8,270,698,270,655,270C610.9,270,567,270,524,270C480,270,436,270,393,270C349.1,270,305,270,262,270C218.2,270,175,270,131,270C87.3,270,44,270,22,270L0,270Z"></path></svg>